# xmcd
#
# Track frame offsets: 
#        150
#        13152
#        24734
#        38167
#        52628
#        67471
#        82813
#        96141
#        110490
#        122897
#        137036
#        150386
#        163210
#        175020
#        187047
#        200338
#        213390
#        226873
#        239263
#        252334
#
# Disc length: 3543 seconds
#
# Revision: 0
# Processed by: cddbd v1.5.2PL0 Copyright (c) Steve Scherf et al.
# Submitted via: ExactAudioCopyFreeDBPlugin 1.0
#
DISCID=0f0dd514
DTITLE=The Carter Family - Famous Country Music Makers
DYEAR=2007
DGENRE=Country
TTITLE0=Keep On The Sunny Side
TTITLE1=Jimmie Brown The Newsboy
TTITLE2=The Wanash Cannonball
TTITLE3=Wildwood Flower
TTITLE4=Engine One-Forty-Three
TTITLE5=Diamonds In The Rough
TTITLE6=John Hardy Was A Desperate Little Man
TTITLE7=My Clinch Mountain Home
TTITLE8=Worried Man Blues
TTITLE9=Can The Circle Be Unbroken
TTITLE10=Foggy Mountain Top
TTITLE11=Lulu Wall
TTITLE12=I Never Will Marry
TTITLE13=Lonesome Valley
TTITLE14=Are You Lonesome Tonight?
TTITLE15=No Depression
TTITLE16=Bonnie Blue Eyes
TTITLE17=Hello Stranger
TTITLE18=Bury Me Under This Weeping Willow
TTITLE19=I'm Thinking Tonight Of My Blue Eyes
EXTD=
EXTT0=
EXTT1=
EXTT2=
EXTT3=
EXTT4=
EXTT5=
EXTT6=
EXTT7=
EXTT8=
EXTT9=
EXTT10=
EXTT11=
EXTT12=
EXTT13=
EXTT14=
EXTT15=
EXTT16=
EXTT17=
EXTT18=
EXTT19=
PLAYORDER=
